# xmcd
#
# Track frame offsets:
#	150
#	12540
#	26255
#	48627
#	60980
#	77030
#	91712
#	103445
#	117562
#	129452
#	145957
#	160652
#	185965
#	199202
#	213430
#	228705
#	250590
#	269985
#	283020
#	292735
#	309972
#
# Disc length: 4277 seconds
#
# Revision: 4
# Processed by: cddbd v1.4PL0 Copyright (c) Steve Scherf et al.
# Submitted via: audiograbber 1.80
#
DISCID=3a10b315
DTITLE=Various Artist - The Great Blues Men
DYEAR=1900
DGENRE=
TTITLE0=Homesick James - Set a Date
TTITLE1=John Lee Hooker - Dusty Road
TTITLE2=Muddy Waters - Nineteen Years Old
TTITLE3=Jesse Fuller - San Francisco Bay Blues
TTITLE4=Mance Lipscomb - Blues in G
TTITLE5=Mississippi John Hurt - Moanin' the Blues
TTITLE6=Johnny Shines - Dynaflow Blues
TTITLE7=Sonny Terry - Mountain Blues
TTITLE8=Joe Turner - It's All Right Baby
TTITLE9=Brownie McGhee and Sonny Terry - Key to the Highway
TTITLE10=Otis Spann - Burning Fire
TTITLE11=Lightning Hopkins - Cotton Field Blues
TTITLE12=Big Bill Broonzy - Louise, Louise Blues
TTITLE13=Johnny Young - Tighten Up on It
TTITLE14=James Cotton - Ain't Nobody's Business
TTITLE15=Jimmy Rushing - How Long, How Long Blues
TTITLE16=Skip James - Cypress Grove Blues
TTITLE17=J.B. Hutto - Please Help
TTITLE18=Fred McDowell - Fred's Rambling Blues
TTITLE19=Robert Pete Williams - On My Way from Texas
TTITLE20=Otis Rush - It's a Mean Old World
EXTD=
EXTT0=
EXTT1=
EXTT2=
EXTT3=
EXTT4=
EXTT5=
EXTT6=
EXTT7=
EXTT8=
EXTT9=
EXTT10=
EXTT11=
EXTT12=
EXTT13=
EXTT14=
EXTT15=
EXTT16=
EXTT17=
EXTT18=
EXTT19=
EXTT20=
PLAYORDER=
